<svg version="1.1" id="Layer_1" xmlns="http://www.w3.org/2000/svg" xmlns:xlink="http://www.w3.org/1999/xlink" x="0px" y="0px"
	 width="100%" viewBox="0 0 753 326" enable-background="new 0 0 753 326" xml:space="preserve">
<path fill="#FDFDFD" opacity="1.000000" stroke="none" 
	d="
M569.000000,327.000000 
	C379.377136,327.000000 190.254257,327.000000 1.065689,327.000000 
	C1.065689,218.402313 1.065689,109.804581 1.065689,1.103425 
	C251.999985,1.103425 502.999969,1.103425 753.978394,1.103425 
	C753.978394,109.745811 753.978394,218.372910 753.978394,327.000000 
	C692.471191,327.000000 630.985596,327.000000 569.000000,327.000000 
M297.017395,88.803131 
	C297.145935,89.873238 297.274475,90.943336 297.243744,92.842751 
	C297.421814,94.221786 297.599884,95.600822 297.533081,97.811592 
	C297.682861,100.543297 297.832611,103.275009 297.777985,106.924294 
	C297.859039,113.949242 297.940125,120.974190 297.777130,128.731598 
	C297.877838,129.488968 297.978546,130.246353 297.907074,131.776031 
	C300.595856,131.693863 303.284607,131.611679 306.591187,131.697769 
	C307.393768,131.463654 308.196381,131.229553 309.761230,131.125839 
	C310.498932,130.933594 311.236603,130.741348 312.695740,130.701569 
	C314.131165,130.429459 315.566589,130.157349 317.746216,130.079727 
	C318.493164,129.954285 319.240082,129.828842 320.673248,129.882065 
	C321.806946,129.685257 322.940613,129.488449 324.843048,129.476334 
	C325.882782,129.367249 326.922516,129.258148 328.502075,129.453873 
	C329.290070,128.633789 330.078094,127.813698 331.037720,126.072403 
	C330.993439,120.383133 330.949158,114.693871 331.078400,108.080940 
	C330.734680,101.381546 330.390991,94.682144 330.193298,87.094742 
	C329.164246,81.062172 328.135193,75.029602 327.259369,68.273628 
	C326.701996,66.449829 326.144623,64.626030 325.482880,62.029381 
	C324.036163,58.672394 322.589447,55.315407 321.068787,51.232857 
	C313.759979,35.297756 302.055389,23.327816 286.935852,14.890351 
	C248.901703,-6.334608 200.322418,8.247294 177.593048,47.219143 
	C162.232407,73.556557 165.574158,102.412537 165.312592,130.785233 
	C176.676254,129.315643 187.588669,127.904419 198.704590,126.466873 
	C198.739777,125.748917 198.791397,124.931671 198.818161,124.113609 
	C199.253159,110.814011 198.996185,97.448471 200.259933,84.228256 
	C202.950851,56.078857 224.601288,36.616302 251.405487,38.137985 
	C264.879242,38.902893 276.871735,43.872501 284.779633,55.596935 
	C288.272675,60.775806 290.934052,66.515625 293.968689,72.811195 
	C295.033752,77.875206 296.098785,82.939209 297.017395,88.803131 
M180.900314,319.149231 
	C190.272614,318.455231 199.644897,317.761230 209.804855,317.155609 
	C215.585770,314.957092 221.366669,312.758575 227.870850,310.431885 
	C232.880035,306.276306 237.889221,302.120697 243.497772,297.650726 
	C246.643860,291.434235 249.789932,285.217743 253.318161,278.309814 
	C253.871689,271.206299 254.425217,264.102753 255.198792,256.152161 
	C254.848877,235.205002 255.230820,214.212738 253.943359,193.323364 
	C252.653885,172.400848 240.957977,157.848236 222.103989,149.104721 
	C207.931656,142.532333 192.949203,141.435623 177.643890,143.335342 
	C145.179962,147.364792 125.133247,168.596207 124.061409,201.210968 
	C123.378792,221.982452 123.317810,242.820084 124.161453,263.579956 
	C124.724518,277.435364 127.748871,291.052460 139.334442,301.570862 
	C140.530807,302.531952 141.727158,303.493042 143.033813,304.493744 
	C143.033813,304.493744 143.108429,304.584137 143.479553,305.161743 
	C146.651581,307.134125 149.823608,309.106506 153.145111,311.241180 
	C153.145111,311.241180 153.356400,311.177612 153.803543,311.783661 
	C161.936630,316.355347 170.749771,318.416870 180.900314,319.149231 
M283.058807,293.857941 
	C296.245972,315.336945 320.399628,321.939484 346.408966,314.816589 
	C363.934692,310.016998 381.156464,289.615448 380.937927,274.548126 
	C370.977020,271.458740 360.922760,268.340393 350.737274,265.181366 
	C350.027466,267.642212 349.570465,269.229004 349.112122,270.815399 
	C346.127808,281.144775 339.895691,286.131989 329.728119,286.327759 
	C318.444824,286.545074 312.260559,282.254089 309.133606,271.397400 
	C307.950592,267.289917 307.206726,262.912537 307.155304,258.647430 
	C306.936432,240.486343 306.820892,222.316574 307.187347,204.160461 
	C307.295990,198.776169 308.476807,193.204346 310.277008,188.110977 
	C313.181732,179.892548 320.869354,175.246704 329.373322,175.451523 
	C338.924164,175.681549 344.501495,179.609619 347.931274,188.592407 
	C348.916351,191.172379 349.776947,193.799896 350.853699,196.857315 
	C361.390198,192.865387 371.428162,189.062332 381.766418,185.145523 
	C377.777222,171.248047 370.922363,159.861328 359.017090,152.309662 
	C323.955170,130.069458 278.998871,151.066513 275.362366,192.324265 
	C273.248810,216.303787 274.156860,240.586212 274.491302,264.721436 
	C274.585114,271.491333 277.465912,278.222656 279.013397,285.569885 
	C279.312469,286.055328 279.611511,286.540741 279.955902,287.610992 
	C280.226929,288.112488 280.497955,288.614014 280.807190,289.797272 
	C281.502441,290.931335 282.197723,292.065399 283.058807,293.857941 
M690.779724,313.890289 
	C691.827393,313.606781 692.875000,313.323273 694.484314,313.236633 
	C695.196411,312.963898 695.908508,312.691162 697.285889,312.400299 
	C698.936768,311.799561 700.587646,311.198792 702.975891,310.558563 
	C705.112244,309.444824 707.248596,308.331085 710.066467,307.152618 
	C723.010254,300.494598 730.563599,289.465607 734.983704,276.034760 
	C742.190002,254.137894 740.373657,231.562424 739.304321,209.145645 
	C738.927734,201.251740 737.235291,193.259781 734.993835,185.651352 
	C731.126770,172.525482 724.150208,161.359497 711.074585,154.194901 
	C709.024841,153.278381 706.975098,152.361877 704.421509,151.086777 
	C703.834656,150.907089 703.247864,150.727386 702.179016,150.051880 
	C700.424988,149.552017 698.670959,149.052139 696.315125,148.224670 
	C695.862671,148.208328 695.410278,148.192001 694.528931,147.805634 
	C693.988342,147.773712 693.447815,147.741806 692.230408,147.351028 
	C691.472473,147.294113 690.714600,147.237183 689.527405,146.814972 
	C688.987122,146.821671 688.446838,146.828369 687.042175,146.496964 
	C667.807922,146.496964 648.573669,146.496964 629.386719,146.496964 
	C629.386719,202.817535 629.386719,258.579620 629.386719,314.869202 
	C640.966064,314.869202 652.252380,314.961945 663.536316,314.837372 
	C671.349792,314.751099 679.159973,314.365173 687.439697,314.364990 
	C688.280090,314.196411 689.120422,314.027832 690.779724,313.890289 
M472.721130,247.726242 
	C468.717651,239.863297 464.896088,231.899567 460.622131,224.186493 
	C458.886383,221.054031 459.378296,218.848709 461.184174,216.076706 
	C475.272034,194.452209 489.240234,172.749725 503.232422,151.062943 
	C504.089508,149.734589 504.836060,148.334900 506.067230,146.226608 
	C494.448181,146.226608 483.693054,146.421463 472.951691,146.121887 
	C469.143951,146.015686 467.019135,147.072800 465.021942,150.415054 
	C453.747833,169.281937 442.195984,187.982925 430.717316,206.727295 
	C430.094879,207.743744 429.278595,208.641525 427.729797,210.674454 
	C427.729797,207.018784 427.729370,204.732117 427.729858,202.445450 
	C427.733398,185.285980 427.754242,168.126495 427.717621,150.967102 
	C427.713379,148.977814 428.590027,146.258057 425.043457,146.248642 
	C415.260071,146.222641 405.476562,146.239655 395.483215,146.239655 
	C395.483215,202.664734 395.483215,258.509521 395.483215,314.384949 
	C406.408173,314.384949 416.934052,314.384949 427.695587,314.384949 
	C427.695587,303.172302 428.280212,292.478394 427.522461,281.880493 
	C426.837341,272.298401 429.388092,264.216064 434.970154,256.710114 
	C437.302368,253.574112 439.286377,253.369751 441.292511,256.618439 
	C443.274719,259.828461 445.234955,263.072296 446.912689,266.446594 
	C454.102051,280.905762 461.267639,295.378357 468.243927,309.940857 
	C469.940216,313.481781 471.867218,315.212433 476.139221,315.001221 
	C484.615265,314.582214 493.126129,314.882416 501.622467,314.843842 
	C503.005066,314.837555 504.386658,314.618134 506.459595,314.436829 
	C495.108490,291.991974 484.083191,270.191345 472.721130,247.726242 
M517.111572,255.499985 
	C517.111572,275.115631 517.111572,294.731293 517.111572,314.501709 
	C549.011719,314.501709 580.379639,314.501709 611.751465,314.501709 
	C611.751465,304.480225 611.751465,294.887787 611.751465,284.714722 
	C590.873047,284.714722 570.303101,284.714722 549.550537,284.714722 
	C549.550537,270.403168 549.550537,256.680328 549.550537,242.494263 
	C560.181396,242.494263 570.483887,242.507950 580.786377,242.490494 
	C591.695068,242.472000 591.711304,242.463486 594.624817,231.759308 
	C595.902832,227.063751 597.099182,222.345978 598.479919,217.076233 
	C581.655518,217.076233 565.723511,217.076233 549.522888,217.076233 
	C549.522888,203.435928 549.522888,190.197388 549.522888,176.356079 
	C570.242798,176.356079 590.645813,176.356079 610.908813,176.356079 
	C610.908813,166.014282 610.908813,156.281601 610.908813,146.615021 
	C579.440918,146.615021 548.396667,146.615021 517.112732,146.615021 
	C517.112732,182.859650 517.112732,218.679810 517.111572,255.499985 
M16.015823,165.500549 
	C16.015823,215.101624 16.015823,264.702698 16.015823,314.600708 
	C50.926861,314.600708 85.316948,314.600708 120.264938,314.600708 
	C119.676506,312.910248 119.260857,311.534882 118.725304,310.207916 
	C115.860504,303.109528 112.790611,296.087311 110.162254,288.903168 
	C109.010483,285.755005 107.504814,284.613495 104.050644,284.658295 
	C87.224258,284.876801 70.393822,284.789734 53.564812,284.787628 
	C51.806515,284.787415 50.048237,284.634979 47.868874,284.533539 
	C47.868874,238.189468 47.868874,192.440796 47.868874,146.602386 
	C37.043118,146.602386 26.675941,146.602386 16.015768,146.602386 
	C16.015768,152.856308 16.015768,158.678604 16.015823,165.500549 
z"/>
<path fill="#424240" opacity="1.000000" stroke="none" 
	d="
M153.356400,311.177612 
	C153.356400,311.177612 153.145111,311.241180 153.074051,310.763611 
	C152.105270,308.341949 155.886765,305.049683 151.634750,304.277679 
	C148.901291,303.781433 145.957779,304.442078 143.108429,304.584137 
	C143.108429,304.584137 143.033813,304.493744 142.988144,304.101105 
	C142.384445,301.771729 142.237137,299.258453 139.086288,300.961426 
	C127.748871,291.052460 124.724518,277.435364 124.161453,263.579956 
	C123.317810,242.820084 123.378792,221.982452 124.061409,201.210968 
	C125.133247,168.596207 145.179962,147.364792 177.643890,143.335342 
	C192.949203,141.435623 207.931656,142.532333 222.103989,149.104721 
	C240.957977,157.848236 252.653885,172.400848 253.943359,193.323364 
	C255.230820,214.212738 254.848877,235.205002 254.730408,256.618591 
	C248.931183,260.738068 249.073303,266.725952 248.081680,272.116333 
	C247.426193,275.679565 249.303955,278.122589 252.936035,279.001251 
	C249.789932,285.217743 246.643860,291.434235 242.822052,297.814087 
	C240.694778,298.557007 239.115051,298.933777 237.816055,299.754761 
	C234.149231,302.072266 230.597626,304.572052 226.653259,306.941986 
	C226.256317,305.863007 226.341141,304.812744 226.126587,303.827698 
	C225.781189,302.242035 225.729431,299.917419 224.696930,299.268890 
	C219.102768,295.755127 213.237747,292.673737 207.499710,289.384705 
	C207.183731,289.203552 207.169785,288.495483 207.367523,288.057556 
	C209.052582,287.965393 210.808655,288.349945 211.644745,287.644348 
	C215.242050,284.608521 213.264313,275.927795 208.521942,273.775574 
	C207.870438,270.301910 207.424255,267.154694 207.199738,263.867188 
	C207.095032,263.145691 206.768646,262.564514 206.293427,261.630280 
	C206.097961,260.517578 206.051376,259.757965 206.283417,258.747375 
	C205.462540,254.327957 204.363007,250.159439 203.086884,245.596512 
	C201.300034,242.021576 203.345078,240.753036 205.756485,239.512894 
	C212.324478,236.135025 217.733353,231.408966 220.379196,224.407608 
	C224.335693,213.938080 224.284241,203.192673 220.855942,192.585464 
	C218.499649,185.294998 213.185715,180.449814 206.139053,177.924911 
	C193.276733,173.316223 180.553452,174.200378 168.399933,180.449783 
	C160.765152,184.375626 156.438232,191.027252 155.238708,199.415756 
	C153.144257,214.062744 155.556793,227.348541 167.968094,237.577148 
	C169.152573,238.552597 170.324173,239.141891 171.899658,239.862381 
	C172.579926,241.221405 173.163742,242.469452 173.084503,243.673889 
	C172.397415,254.117905 171.591202,264.554077 170.409790,274.996521 
	C169.002274,275.965576 167.347427,276.809967 167.143723,277.920563 
	C166.701996,280.328949 167.143097,282.883423 166.968262,285.360107 
	C166.656845,289.771423 168.815994,291.767548 173.001221,292.395691 
	C171.461533,294.863373 170.102585,297.116852 168.327805,298.972656 
	C166.908310,300.456909 164.125946,301.101196 163.444565,302.740265 
	C161.473709,307.481079 157.370178,309.165619 153.356400,311.177612 
z"/>
<path fill="#424240" opacity="1.000000" stroke="none" 
	d="
M689.956665,147.180252 
	C690.714600,147.237183 691.472473,147.294113 692.645874,147.759750 
	C693.693481,148.170868 694.325684,148.173279 694.957825,148.175674 
	C695.410278,148.192001 695.862671,148.208328 696.745239,148.707001 
	C699.003906,149.642105 700.832458,150.094910 702.661011,150.547699 
	C703.247864,150.727386 703.834656,150.907089 704.761047,151.586914 
	C707.223389,152.973679 709.346252,153.860321 711.469055,154.746948 
	C724.150208,161.359497 731.126770,172.525482 734.993835,185.651352 
	C737.235291,193.259781 738.927734,201.251740 739.304321,209.145645 
	C740.373657,231.562424 742.190002,254.137894 734.983704,276.034760 
	C730.563599,289.465607 723.010254,300.494598 709.403687,306.980255 
	C704.891479,304.064484 703.423706,304.920013 702.238464,310.598022 
	C700.587646,311.198792 698.936768,311.799561 696.662231,312.287537 
	C695.333191,312.463074 694.627930,312.751404 693.922668,313.039734 
	C692.875000,313.323273 691.827393,313.606781 690.170654,313.642731 
	C688.698242,313.634491 687.834900,313.873810 686.971619,314.113129 
	C679.159973,314.365173 671.349792,314.751099 663.536316,314.837372 
	C652.252380,314.961945 640.966064,314.869202 629.386719,314.869202 
	C629.386719,258.579620 629.386719,202.817535 629.386719,146.496964 
	C648.573669,146.496964 667.807922,146.496964 687.564453,146.882828 
	C688.710022,147.239212 689.333313,147.209732 689.956665,147.180252 
M661.153320,268.494568 
	C661.153320,273.739441 661.153320,278.984314 661.153320,284.662109 
	C665.871216,284.662109 669.837341,284.660614 673.803467,284.662384 
	C693.059082,284.671021 704.346313,276.406769 705.961548,257.279266 
	C707.533997,238.658920 706.726501,219.732407 705.558167,201.028137 
	C704.930725,190.982574 699.783386,182.248215 689.297424,178.332230 
	C680.126099,174.907227 670.713318,176.806534 661.153137,176.420303 
	C661.153137,207.267532 661.153137,237.382156 661.153320,268.494568 
z"/>
<path fill="#434341" opacity="1.000000" stroke="none" 
	d="
M472.889526,248.058472 
	C484.083191,270.191345 495.108490,291.991974 506.459595,314.436829 
	C504.386658,314.618134 503.005066,314.837555 501.622467,314.843842 
	C493.126129,314.882416 484.615265,314.582214 476.139221,315.001221 
	C471.867218,315.212433 469.940216,313.481781 468.243927,309.940857 
	C461.267639,295.378357 454.102051,280.905762 446.912689,266.446594 
	C445.234955,263.072296 443.274719,259.828461 441.292511,256.618439 
	C439.286377,253.369751 437.302368,253.574112 434.970154,256.710114 
	C429.388092,264.216064 426.837341,272.298401 427.522461,281.880493 
	C428.280212,292.478394 427.695587,303.172302 427.695587,314.384949 
	C416.934052,314.384949 406.408173,314.384949 395.483215,314.384949 
	C395.483215,258.509521 395.483215,202.664734 395.483215,146.239655 
	C405.476562,146.239655 415.260071,146.222641 425.043457,146.248642 
	C428.590027,146.258057 427.713379,148.977814 427.717621,150.967102 
	C427.754242,168.126495 427.733398,185.285980 427.729858,202.445450 
	C427.729370,204.732117 427.729797,207.018784 427.729797,210.674454 
	C429.278595,208.641525 430.094879,207.743744 430.717316,206.727295 
	C442.195984,187.982925 453.747833,169.281937 465.021942,150.415054 
	C467.019135,147.072800 469.143951,146.015686 472.951691,146.121887 
	C483.693054,146.421463 494.448181,146.226608 506.067230,146.226608 
	C504.836060,148.334900 504.089508,149.734589 503.232422,151.062943 
	C489.240234,172.749725 475.272034,194.452209 461.184174,216.076706 
	C459.378296,218.848709 458.886383,221.054031 460.622131,224.186493 
	C464.896088,231.899567 468.717651,239.863297 472.889526,248.058472 
z"/>
<path fill="#434340" opacity="1.000000" stroke="none" 
	d="
M517.112183,254.999969 
	C517.112732,218.679810 517.112732,182.859650 517.112732,146.615021 
	C548.396667,146.615021 579.440918,146.615021 610.908813,146.615021 
	C610.908813,156.281601 610.908813,166.014282 610.908813,176.356079 
	C590.645813,176.356079 570.242798,176.356079 549.522888,176.356079 
	C549.522888,190.197388 549.522888,203.435928 549.522888,217.076233 
	C565.723511,217.076233 581.655518,217.076233 598.479919,217.076233 
	C597.099182,222.345978 595.902832,227.063751 594.624817,231.759308 
	C591.711304,242.463486 591.695068,242.472000 580.786377,242.490494 
	C570.483887,242.507950 560.181396,242.494263 549.550537,242.494263 
	C549.550537,256.680328 549.550537,270.403168 549.550537,284.714722 
	C570.303101,284.714722 590.873047,284.714722 611.751465,284.714722 
	C611.751465,294.887787 611.751465,304.480225 611.751465,314.501709 
	C580.379639,314.501709 549.011719,314.501709 517.111572,314.501709 
	C517.111572,294.731293 517.111572,275.115631 517.112183,254.999969 
z"/>
<path fill="#434341" opacity="1.000000" stroke="none" 
	d="
M279.068298,284.971649 
	C277.465912,278.222656 274.585114,271.491333 274.491302,264.721436 
	C274.156860,240.586212 273.248810,216.303787 275.362366,192.324265 
	C278.998871,151.066513 323.955170,130.069458 359.017090,152.309662 
	C370.922363,159.861328 377.777222,171.248047 381.766418,185.145523 
	C371.428162,189.062332 361.390198,192.865387 350.853699,196.857315 
	C349.776947,193.799896 348.916351,191.172379 347.931274,188.592407 
	C344.501495,179.609619 338.924164,175.681549 329.373322,175.451523 
	C320.869354,175.246704 313.181732,179.892548 310.277008,188.110977 
	C308.476807,193.204346 307.295990,198.776169 307.187347,204.160461 
	C306.820892,222.316574 306.936432,240.486343 307.155304,258.647430 
	C307.206726,262.912537 307.950592,267.289917 309.133606,271.397400 
	C312.260559,282.254089 318.444824,286.545074 329.728119,286.327759 
	C339.895691,286.131989 346.127808,281.144775 349.112122,270.815399 
	C349.570465,269.229004 350.027466,267.642212 350.737274,265.181366 
	C360.922760,268.340393 370.977020,271.458740 380.937927,274.548126 
	C381.156464,289.615448 363.934692,310.016998 346.408966,314.816589 
	C320.399628,321.939484 296.245972,315.336945 283.015503,293.129761 
	C282.237793,291.306213 281.503387,290.210846 280.768982,289.115509 
	C280.497955,288.614014 280.226929,288.112488 280.173706,287.163696 
	C279.950439,286.134827 279.509369,285.553223 279.068298,284.971649 
z"/>
<path fill="#434341" opacity="1.000000" stroke="none" 
	d="
M325.587219,62.802235 
	C326.144623,64.626030 326.701996,66.449829 326.819641,68.629608 
	C325.202332,68.507172 324.024689,68.028748 322.951813,67.592880 
	C320.986908,69.912155 318.983093,72.186844 317.084259,74.546059 
	C315.442749,76.585564 314.178223,79.000786 312.283173,80.746323 
	C309.674011,83.149635 306.666809,85.134338 303.742462,87.172600 
	C302.997833,87.691597 301.922272,87.735809 300.998962,87.583054 
	C302.036469,82.707481 300.431122,79.024513 298.410065,75.060699 
	C297.221893,72.730446 296.366180,71.745056 293.972992,72.000786 
	C290.934052,66.515625 288.272675,60.775806 284.779633,55.596935 
	C276.871735,43.872501 264.879242,38.902893 251.405487,38.137985 
	C224.601288,36.616302 202.950851,56.078857 200.259933,84.228256 
	C198.996185,97.448471 199.253159,110.814011 198.818161,124.113609 
	C198.791397,124.931671 198.739777,125.748917 198.704590,126.466873 
	C187.588669,127.904419 176.676254,129.315643 165.312592,130.785233 
	C165.574158,102.412537 162.232407,73.556557 177.593048,47.219143 
	C200.322418,8.247294 248.901703,-6.334608 286.935852,14.890351 
	C302.055389,23.327816 313.759979,35.297756 320.745789,51.661392 
	C320.528839,54.170635 320.972809,56.301888 320.670715,58.321552 
	C320.040894,62.532349 322.334717,63.086979 325.587219,62.802235 
z"/>
<path fill="#424240" opacity="1.000000" stroke="none" 
	d="
M16.015797,165.000717 
	C16.015768,158.678604 16.015768,152.856308 16.015768,146.602386 
	C26.675941,146.602386 37.043118,146.602386 47.868874,146.602386 
	C47.868874,192.440796 47.868874,238.189468 47.868874,284.533539 
	C50.048237,284.634979 51.806515,284.787415 53.564812,284.787628 
	C70.393822,284.789734 87.224258,284.876801 104.050644,284.658295 
	C107.504814,284.613495 109.010483,285.755005 110.162254,288.903168 
	C112.790611,296.087311 115.860504,303.109528 118.725304,310.207916 
	C119.260857,311.534882 119.676506,312.910248 120.264938,314.600708 
	C85.316948,314.600708 50.926861,314.600708 16.015823,314.600708 
	C16.015823,264.702698 16.015823,215.101624 16.015797,165.000717 
z"/>
<path fill="#403F3D" opacity="1.000000" stroke="none" 
	d="
M300.998779,87.998169 
	C301.922272,87.735809 302.997833,87.691597 303.742462,87.172600 
	C306.666809,85.134338 309.674011,83.149635 312.283173,80.746323 
	C314.178223,79.000786 315.442749,76.585564 317.084259,74.546059 
	C318.983093,72.186844 320.986908,69.912155 322.951813,67.592880 
	C324.024689,68.028748 325.202332,68.507172 326.743042,68.991318 
	C328.135193,75.029602 329.164246,81.062172 329.839966,87.733200 
	C325.934479,91.575348 326.030609,95.937935 325.172760,100.215744 
	C323.987854,106.124641 325.011749,108.484337 330.904877,109.004601 
	C330.949158,114.693871 330.993439,120.383133 330.597351,126.541046 
	C329.425415,127.722809 328.693817,128.435944 327.962250,129.149063 
	C326.922516,129.258148 325.882782,129.367249 324.406982,129.032303 
	C321.750122,125.770218 320.741241,127.281860 319.987030,129.703400 
	C319.240082,129.828842 318.493164,129.954285 317.300781,129.633575 
	C314.635071,127.514679 312.653259,126.696770 311.974304,130.549103 
	C311.236603,130.741348 310.498932,130.933594 309.333496,130.732117 
	C308.315887,129.956726 307.726013,129.575089 307.136169,129.193451 
	C306.748566,129.972122 306.360962,130.750809 305.973389,131.529495 
	C303.284607,131.611679 300.595856,131.693863 298.332092,131.387329 
	C299.379059,130.608459 300.000946,130.218307 300.622864,129.828171 
	C299.755646,129.218491 298.888397,128.608810 298.021179,127.999138 
	C297.940125,120.974190 297.859039,113.949242 298.166748,106.198853 
	C298.296326,102.642227 298.037140,99.811043 297.777954,96.979866 
	C297.599884,95.600822 297.421814,94.221786 297.679382,92.408928 
	C298.744141,90.650780 299.373291,89.326462 300.251526,88.001297 
	C300.500610,88.000450 300.998779,87.998169 300.998779,87.998169 
M313.906281,118.272133 
	C313.960907,118.768929 314.015533,119.265732 314.070160,119.762527 
	C314.514587,119.648209 314.959015,119.533890 315.403442,119.419563 
	C315.102722,118.995277 314.801971,118.570999 313.906281,118.272133 
z"/>
<path fill="#41413E" opacity="1.000000" stroke="none" 
	d="
M153.579971,311.480652 
	C157.370178,309.165619 161.473709,307.481079 163.444565,302.740265 
	C164.125946,301.101196 166.908310,300.456909 168.327805,298.972656 
	C170.102585,297.116852 171.461533,294.863373 173.317413,292.258606 
	C176.981445,291.741608 180.338364,291.891571 183.667343,291.652374 
	C184.502167,291.592346 185.247147,290.282349 186.445724,289.395569 
	C188.902451,289.154694 190.946854,289.065033 193.211029,289.245422 
	C194.959167,289.144165 196.487503,288.772858 198.371765,288.254761 
	C199.489624,288.084900 200.251556,288.061859 201.186218,288.276825 
	C202.246628,288.187897 203.134308,287.860931 204.373016,287.372864 
	C205.488754,287.170685 206.253464,287.129608 207.008194,287.324524 
	C206.998215,287.560547 207.015244,288.032684 207.015259,288.032684 
	C207.169785,288.495483 207.183731,289.203552 207.499710,289.384705 
	C213.237747,292.673737 219.102768,295.755127 224.696930,299.268890 
	C225.729431,299.917419 225.781189,302.242035 226.126587,303.827698 
	C226.341141,304.812744 226.256317,305.863007 226.654556,307.386475 
	C227.051346,308.779327 227.099457,309.669678 227.147583,310.560059 
	C221.366669,312.758575 215.585770,314.957092 209.368988,316.747406 
	C206.944260,315.396454 204.832382,313.474823 202.991043,313.706207 
	C198.590027,314.259247 197.127335,312.971710 196.795258,308.567291 
	C196.637146,306.470154 194.350800,302.895325 192.958527,302.861359 
	C189.802139,302.784424 185.097794,303.541016 183.753357,305.677155 
	C181.414108,309.393982 181.137405,314.408936 179.996017,318.879669 
	C170.749771,318.416870 161.936630,316.355347 153.579971,311.480652 
z"/>
<path fill="#464643" opacity="1.000000" stroke="none" 
	d="
M180.448166,319.014465 
	C181.137405,314.408936 181.414108,309.393982 183.753357,305.677155 
	C185.097794,303.541016 189.802139,302.784424 192.958527,302.861359 
	C194.350800,302.895325 196.637146,306.470154 196.795258,308.567291 
	C197.127335,312.971710 198.590027,314.259247 202.991043,313.706207 
	C204.832382,313.474823 206.944260,315.396454 208.975159,316.703217 
	C199.644897,317.761230 190.272614,318.455231 180.448166,319.014465 
z"/>
<path fill="#484845" opacity="1.000000" stroke="none" 
	d="
M253.127106,278.655518 
	C249.303955,278.122589 247.426193,275.679565 248.081680,272.116333 
	C249.073303,266.725952 248.931183,260.738068 254.620377,257.042145 
	C254.425217,264.102753 253.871689,271.206299 253.127106,278.655518 
z"/>
<path fill="#474744" opacity="1.000000" stroke="none" 
	d="
M330.991638,108.542770 
	C325.011749,108.484337 323.987854,106.124641 325.172760,100.215744 
	C326.030609,95.937935 325.934479,91.575348 329.766968,88.177200 
	C330.390991,94.682144 330.734680,101.381546 330.991638,108.542770 
z"/>
<path fill="#474744" opacity="1.000000" stroke="none" 
	d="
M300.998962,87.583054 
	C300.998779,87.998169 300.500610,88.000450 299.896667,88.000710 
	C298.583069,88.001724 297.873474,88.002472 297.163849,88.003220 
	C296.098785,82.939209 295.033752,77.875206 293.970825,72.405991 
	C296.366180,71.745056 297.221893,72.730446 298.410065,75.060699 
	C300.431122,79.024513 302.036469,82.707481 300.998962,87.583054 
z"/>
<path fill="#484845" opacity="1.000000" stroke="none" 
	d="
M227.509216,310.495972 
	C227.099457,309.669678 227.051346,308.779327 227.001923,307.444458 
	C230.597626,304.572052 234.149231,302.072266 237.816055,299.754761 
	C239.115051,298.933777 240.694778,298.557007 242.522369,297.971252 
	C237.889221,302.120697 232.880035,306.276306 227.509216,310.495972 
z"/>
<path fill="#484845" opacity="1.000000" stroke="none" 
	d="
M143.293991,304.872925 
	C145.957779,304.442078 148.901291,303.781433 151.634750,304.277679 
	C155.886765,305.049683 152.105270,308.341949 152.999313,310.682434 
	C149.823608,309.106506 146.651581,307.134125 143.293991,304.872925 
z"/>
<path fill="#474744" opacity="1.000000" stroke="none" 
	d="
M325.535034,62.415810 
	C322.334717,63.086979 320.040894,62.532349 320.670715,58.321552 
	C320.972809,56.301888 320.528839,54.170635 320.782745,52.024170 
	C322.589447,55.315407 324.036163,58.672394 325.535034,62.415810 
z"/>
<path fill="#4F4F4C" opacity="1.000000" stroke="none" 
	d="
M702.607178,310.578308 
	C703.423706,304.920013 704.891479,304.064484 709.062866,307.012634 
	C707.248596,308.331085 705.112244,309.444824 702.607178,310.578308 
z"/>
<path fill="#474744" opacity="1.000000" stroke="none" 
	d="
M297.655518,97.395729 
	C298.037140,99.811043 298.296326,102.642227 298.268951,105.740059 
	C297.832611,103.275009 297.682861,100.543297 297.655518,97.395729 
z"/>
<path fill="#474744" opacity="1.000000" stroke="none" 
	d="
M312.335022,130.625336 
	C312.653259,126.696770 314.635071,127.514679 316.928711,129.536346 
	C315.566589,130.157349 314.131165,130.429459 312.335022,130.625336 
z"/>
<path fill="#434341" opacity="1.000000" stroke="none" 
	d="
M297.090637,88.403175 
	C297.873474,88.002472 298.583069,88.001724 299.647583,88.001556 
	C299.373291,89.326462 298.744141,90.650780 297.759003,91.994278 
	C297.274475,90.943336 297.145935,89.873238 297.090637,88.403175 
z"/>
<path fill="#60605C" opacity="1.000000" stroke="none" 
	d="
M711.271851,154.470917 
	C709.346252,153.860321 707.223389,152.973679 705.012939,151.766205 
	C706.975098,152.361877 709.024841,153.278381 711.271851,154.470917 
z"/>
<path fill="#474744" opacity="1.000000" stroke="none" 
	d="
M320.330139,129.792725 
	C320.741241,127.281860 321.750122,125.770218 324.022644,128.939941 
	C322.940613,129.488449 321.806946,129.685257 320.330139,129.792725 
z"/>
<path fill="#484845" opacity="1.000000" stroke="none" 
	d="
M139.210358,301.266144 
	C142.237137,299.258453 142.384445,301.771729 142.932983,304.081299 
	C141.727158,303.493042 140.530807,302.531952 139.210358,301.266144 
z"/>
<path fill="#474744" opacity="1.000000" stroke="none" 
	d="
M306.282288,131.613632 
	C306.360962,130.750809 306.748566,129.972122 307.136169,129.193451 
	C307.726013,129.575089 308.315887,129.956726 308.952332,130.666916 
	C308.196381,131.229553 307.393768,131.463654 306.282288,131.613632 
z"/>
<path fill="#474744" opacity="1.000000" stroke="none" 
	d="
M328.232178,129.301468 
	C328.693817,128.435944 329.425415,127.722809 330.511536,127.001648 
	C330.078094,127.813698 329.290070,128.633789 328.232178,129.301468 
z"/>
<path fill="#60605C" opacity="1.000000" stroke="none" 
	d="
M702.420044,150.299805 
	C700.832458,150.094910 699.003906,149.642105 697.046143,148.870789 
	C698.670959,149.052139 700.424988,149.552017 702.420044,150.299805 
z"/>
<path fill="#474744" opacity="1.000000" stroke="none" 
	d="
M297.899170,128.365372 
	C298.888397,128.608810 299.755646,129.218491 300.622864,129.828171 
	C300.000946,130.218307 299.379059,130.608459 298.418213,131.001160 
	C297.978546,130.246353 297.877838,129.488968 297.899170,128.365372 
z"/>
<path fill="#60605C" opacity="1.000000" stroke="none" 
	d="
M280.788086,289.456390 
	C281.503387,290.210846 282.237793,291.306213 282.932587,292.800507 
	C282.197723,292.065399 281.502441,290.931335 280.788086,289.456390 
z"/>
<path fill="#60605C" opacity="1.000000" stroke="none" 
	d="
M687.205688,314.239075 
	C687.834900,313.873810 688.698242,313.634491 689.761169,313.627197 
	C689.120422,314.027832 688.280090,314.196411 687.205688,314.239075 
z"/>
<path fill="#60605C" opacity="1.000000" stroke="none" 
	d="
M279.040833,285.270752 
	C279.509369,285.553223 279.950439,286.134827 280.151062,286.871277 
	C279.611511,286.540741 279.312469,286.055328 279.040833,285.270752 
z"/>
<path fill="#60605C" opacity="1.000000" stroke="none" 
	d="
M689.742065,146.997620 
	C689.333313,147.209732 688.710022,147.239212 687.996582,147.051880 
	C688.446838,146.828369 688.987122,146.821671 689.742065,146.997620 
z"/>
<path fill="#60605C" opacity="1.000000" stroke="none" 
	d="
M694.743408,147.990662 
	C694.325684,148.173279 693.693481,148.170868 692.984253,147.939178 
	C693.447815,147.741806 693.988342,147.773712 694.743408,147.990662 
z"/>
<path fill="#60605C" opacity="1.000000" stroke="none" 
	d="
M694.203491,313.138184 
	C694.627930,312.751404 695.333191,312.463074 696.329590,312.296570 
	C695.908508,312.691162 695.196411,312.963898 694.203491,313.138184 
z"/>
<path fill="#FCFCFB" opacity="1.000000" stroke="none" 
	d="
M207.018173,287.088531 
	C206.253464,287.129608 205.488754,287.170685 204.065750,287.282196 
	C202.609467,287.581329 201.811478,287.810089 201.013489,288.038818 
	C200.251556,288.061859 199.489624,288.084900 198.009628,288.159363 
	C195.858124,288.465637 194.424698,288.720490 192.991257,288.975342 
	C190.946854,289.065033 188.902451,289.154694 185.989380,289.279053 
	C180.204956,289.313751 175.289230,289.313751 170.144180,289.313751 
	C170.399887,283.898712 170.610168,279.445648 170.820450,274.992584 
	C171.591202,264.554077 172.397415,254.117905 173.084503,243.673889 
	C173.163742,242.469452 172.579926,241.221405 171.741806,239.582458 
	C170.105133,238.511230 169.030167,237.851120 167.955215,237.191010 
	C155.556793,227.348541 153.144257,214.062744 155.238708,199.415756 
	C156.438232,191.027252 160.765152,184.375626 168.399933,180.449783 
	C180.553452,174.200378 193.276733,173.316223 206.139053,177.924911 
	C213.185715,180.449814 218.499649,185.294998 220.855942,192.585464 
	C224.284241,203.192673 224.335693,213.938080 220.379196,224.407608 
	C217.733353,231.408966 212.324478,236.135025 205.756485,239.512894 
	C203.345078,240.753036 201.300034,242.021576 203.049561,245.994720 
	C204.127457,250.857681 205.066116,254.927994 206.004776,258.998322 
	C206.051376,259.757965 206.097961,260.517578 206.239014,261.900696 
	C206.548340,263.018585 206.763214,263.513031 206.978073,264.007477 
	C207.424255,267.154694 207.870438,270.301910 208.497009,274.230591 
	C208.864868,276.968781 209.421494,278.980225 209.141907,280.867767 
	C208.826141,282.999451 207.758713,285.019775 207.018173,287.088531 
z"/>
<path fill="#484845" opacity="1.000000" stroke="none" 
	d="
M170.409790,274.996521 
	C170.610168,279.445648 170.399887,283.898712 170.144180,289.313751 
	C175.289230,289.313751 180.204956,289.313751 185.577057,289.430298 
	C185.247147,290.282349 184.502167,291.592346 183.667343,291.652374 
	C180.338364,291.891571 176.981445,291.741608 173.318649,291.872742 
	C168.815994,291.767548 166.656845,289.771423 166.968262,285.360107 
	C167.143097,282.883423 166.701996,280.328949 167.143723,277.920563 
	C167.347427,276.809967 169.002274,275.965576 170.409790,274.996521 
z"/>
<path fill="#484845" opacity="1.000000" stroke="none" 
	d="
M207.008194,287.324524 
	C207.758713,285.019775 208.826141,282.999451 209.141907,280.867767 
	C209.421494,278.980225 208.864868,276.968781 208.702332,274.557068 
	C213.264313,275.927795 215.242050,284.608521 211.644745,287.644348 
	C210.808655,288.349945 209.052582,287.965393 207.367523,288.057556 
	C207.015244,288.032684 206.998215,287.560547 207.008194,287.324524 
z"/>
<path fill="#484845" opacity="1.000000" stroke="none" 
	d="
M206.283417,258.747375 
	C205.066116,254.927994 204.127457,250.857681 203.226135,246.389145 
	C204.363007,250.159439 205.462540,254.327957 206.283417,258.747375 
z"/>
<path fill="#60605C" opacity="1.000000" stroke="none" 
	d="
M167.968094,237.577148 
	C169.030167,237.851120 170.105133,238.511230 171.337936,239.451263 
	C170.324173,239.141891 169.152573,238.552597 167.968094,237.577148 
z"/>
<path fill="#484845" opacity="1.000000" stroke="none" 
	d="
M207.199738,263.867188 
	C206.763214,263.513031 206.548340,263.018585 206.387878,262.253723 
	C206.768646,262.564514 207.095032,263.145691 207.199738,263.867188 
z"/>
<path fill="#FBFBFA" opacity="1.000000" stroke="none" 
	d="
M661.153198,267.995667 
	C661.153137,237.382156 661.153137,207.267532 661.153137,176.420303 
	C670.713318,176.806534 680.126099,174.907227 689.297424,178.332230 
	C699.783386,182.248215 704.930725,190.982574 705.558167,201.028137 
	C706.726501,219.732407 707.533997,238.658920 705.961548,257.279266 
	C704.346313,276.406769 693.059082,284.671021 673.803467,284.662384 
	C669.837341,284.660614 665.871216,284.662109 661.153320,284.662109 
	C661.153320,278.984314 661.153320,273.739441 661.153198,267.995667 
z"/>
<path fill="#474744" opacity="1.000000" stroke="none" 
	d="
M314.203735,118.209427 
	C314.801971,118.570999 315.102722,118.995277 315.403442,119.419571 
	C314.959015,119.533890 314.514587,119.648209 314.070160,119.762527 
	C314.015533,119.265732 313.960907,118.768929 314.203735,118.209427 
z"/>
<path fill="#484845" opacity="1.000000" stroke="none" 
	d="
M193.211029,289.245422 
	C194.424698,288.720490 195.858124,288.465637 197.653702,288.306183 
	C196.487503,288.772858 194.959167,289.144165 193.211029,289.245422 
z"/>
<path fill="#484845" opacity="1.000000" stroke="none" 
	d="
M201.186218,288.276825 
	C201.811478,287.810089 202.609467,287.581329 203.714722,287.443298 
	C203.134308,287.860931 202.246628,288.187897 201.186218,288.276825 
z"/>
</svg>