<svg xmlns="http://www.w3.org/2000/svg" width="1024" height="1024" viewBox="0 0 1024 1024" version="1.1"><path d="M 0 512.001 L 0 1024.002 512.250 1023.751 L 1024.500 1023.500 1024.751 511.750 L 1025.002 0 512.501 0 L 0 0 0 512.001 M 0.496 512.500 C 0.496 794.100, 0.610 909.151, 0.750 768.168 C 0.890 627.186, 0.890 396.786, 0.750 256.168 C 0.610 115.551, 0.496 230.900, 0.496 512.500 M 489 11.058 C 452.987 12.805, 422.132 17.640, 381 27.982 C 281.519 52.996, 176.049 124.398, 111.998 210.093 C 102.895 222.272, 82 253.223, 82 254.527 C 82 254.893, 81.149 256.386, 80.109 257.847 C 77.182 261.958, 59.723 296.165, 54.002 309 C 51.182 315.325, 48.065 322.300, 47.074 324.500 C 43.312 332.856, 30.908 371.140, 27.149 386 C 20.909 410.665, 16.439 435.563, 12.786 466 C 10.085 488.496, 11.334 550.423, 14.974 574.500 C 15.473 577.800, 16.396 584.100, 17.024 588.500 C 17.653 592.900, 19.534 603.250, 21.205 611.500 C 22.875 619.750, 24.465 627.625, 24.737 629 C 29.216 651.642, 45.519 697.445, 59.391 726.363 C 63.576 735.087, 67 742.342, 67 742.485 C 67 743.083, 81.882 768.946, 85.134 774 C 107.046 808.052, 121.992 828.171, 140.105 848 C 226.240 942.290, 335.574 997.126, 465.500 1011.200 C 481.486 1012.932, 550.019 1012.936, 562.500 1011.206 C 581.023 1008.639, 586.831 1007.733, 599.500 1005.434 C 625.139 1000.781, 646.081 995.816, 662 990.615 C 676.797 985.780, 696.850 978.571, 702.076 976.208 C 704.509 975.107, 709.425 972.992, 713 971.506 C 734.557 962.547, 756.488 950.577, 785.571 931.898 C 898.043 859.656, 978.243 740.379, 1003.355 608 C 1010.897 568.245, 1012.372 552.377, 1012.330 511.500 C 1012.284 466.361, 1007.907 429.620, 997.974 391 C 997.478 389.075, 996.344 384.350, 995.452 380.500 C 978.864 308.877, 926.240 216.841, 869.662 160.500 L 861.628 152.500 860.909 157.500 C 860.514 160.250, 859.668 166.775, 859.030 172 C 857.508 184.448, 856.203 191.833, 853.893 201.068 C 851.299 211.438, 851.446 212.712, 855.837 217.936 C 902.728 273.715, 932.469 331.332, 950.333 401 C 951.673 406.225, 952.990 411.625, 953.261 413 C 953.531 414.375, 954.444 418.875, 955.288 423 C 956.133 427.125, 957.561 435.450, 958.461 441.500 C 959.361 447.550, 960.312 453.521, 960.573 454.769 C 964.989 475.870, 964.434 541.592, 959.558 575 C 958.160 584.573, 957.539 588.245, 954.988 602 C 954.230 606.088, 950.563 620.558, 945.015 641.348 C 936.513 673.210, 915.900 719.401, 897.297 748.274 C 893.834 753.650, 891 758.316, 891 758.643 C 891 759.771, 870.621 788.515, 864.754 795.663 C 858.359 803.455, 855.164 805.411, 840 810.822 C 819.235 818.231, 798.797 822.709, 770.500 826.049 C 759.523 827.345, 714.093 826.764, 701 825.159 C 686.967 823.440, 661.525 819.037, 653.500 816.938 C 649.100 815.788, 643.700 814.456, 641.500 813.980 C 637.799 813.178, 626.671 810.015, 609.500 804.884 C 599.376 801.859, 555.908 786.767, 536.500 779.538 C 526.065 775.652, 512.820 771.116, 508.500 769.949 C 506.850 769.503, 501.450 767.957, 496.500 766.512 C 465.088 757.348, 442.366 752.767, 409 748.871 C 371.831 744.530, 312.316 748.821, 280.500 758.134 C 267.379 761.975, 242.435 770.523, 235 773.727 C 228.221 776.648, 205.484 788.231, 202.854 790.104 C 201.389 791.147, 199.902 792, 199.548 792 C 198.477 792, 176.316 806.679, 175.574 807.881 C 169.492 817.722, 114.422 734.968, 95.797 688 C 85.600 662.284, 85.659 662.448, 80.187 645 C 77.347 635.944, 70.048 607.583, 68.928 601.250 C 68.418 598.363, 67.544 593.413, 66.986 590.250 C 58.921 544.521, 58.021 493.989, 64.470 449 C 66.398 435.546, 68.476 423.369, 70.016 416.500 C 79.667 373.438, 90.975 342.195, 110.935 303.439 C 115.767 294.056, 120.978 284.381, 122.515 281.939 C 124.051 279.498, 126.724 275.250, 128.455 272.500 C 157.037 227.084, 195.642 184.709, 237 153.353 C 250.745 142.932, 264.640 133, 265.475 133 C 265.841 133, 268.021 131.718, 270.320 130.152 C 298.889 110.686, 350.764 86.941, 385 77.659 C 405.235 72.173, 409.996 71.027, 425 68.028 C 456.504 61.731, 475.136 60.004, 511.634 60.002 L 540.767 60 544.505 55.750 C 552.295 46.894, 571.748 27.629, 577.750 22.828 C 581.188 20.078, 584 17.467, 584 17.027 C 584 15.124, 561.896 12.418, 535 11.027 C 513.874 9.935, 512.119 9.936, 489 11.058 M 625 16.394 C 594.887 26.939, 578.104 42.736, 502.286 131.896 C 498.916 135.859, 499.386 136.559, 507.750 140.027 C 520.639 145.371, 542.127 154.586, 548.500 157.502 C 584.071 173.775, 730.885 247.677, 755 261.446 C 758.025 263.174, 762.075 265.388, 764 266.366 C 765.925 267.345, 768.401 268.676, 769.502 269.323 C 770.604 269.970, 776.679 273.257, 783.002 276.626 C 797.121 284.148, 803.535 287.666, 807.691 290.169 C 812.298 292.943, 811.296 295.514, 822.579 252 C 833.440 210.118, 837.283 194.083, 839.476 181.500 C 849.985 121.202, 835.202 97.661, 784.500 93.953 C 770.139 92.903, 757.250 91.228, 746.500 89.016 C 729.408 85.497, 714.186 73.872, 692.796 48 C 666.664 16.392, 648.795 8.061, 625 16.394 M 354.301 125.913 C 329.799 134.266, 335.104 157.358, 369.389 191.596 C 388.212 210.392, 394.293 214.762, 397.035 211.458 C 397.739 210.610, 401.956 207.366, 406.407 204.250 C 410.858 201.133, 418.992 195.046, 424.482 190.724 C 433.737 183.437, 434.721 182.911, 437.982 183.502 C 441.347 184.111, 452.287 187.390, 456.500 189.051 C 457.600 189.485, 461.875 191.068, 466 192.569 C 470.125 194.070, 475.300 196.073, 477.500 197.020 C 491.107 202.878, 493.805 204, 494.286 204 C 494.581 204, 498.124 205.526, 502.161 207.390 C 510.069 211.043, 519.510 215.370, 527.500 219.003 C 530.250 220.253, 539.396 224.589, 547.825 228.638 C 556.254 232.687, 563.424 236, 563.758 236 C 564.629 236, 688.164 297.680, 702.500 305.273 C 709.100 308.769, 720.350 314.715, 727.500 318.487 C 734.650 322.259, 742.819 326.571, 745.653 328.068 C 754.495 332.741, 788.187 351.902, 794.850 356.049 C 798.343 358.222, 801.346 360, 801.524 360 C 802.219 360, 827.604 376.235, 829.384 377.818 C 833.337 381.332, 834.243 385.777, 834.476 402.799 C 834.741 422.156, 833.632 420.632, 848.507 422.089 C 913.641 428.472, 921.505 399.664, 867 354.348 C 855.474 344.766, 821.372 322, 818.544 322 C 818.331 322, 814.410 319.836, 809.829 317.190 C 805.248 314.545, 795.200 309.080, 787.500 305.045 C 779.800 301.011, 773.050 297.391, 772.500 297.002 C 771.950 296.612, 763.400 292.119, 753.500 287.016 C 743.600 281.914, 735.050 277.415, 734.500 277.019 C 733.950 276.623, 723.150 270.999, 710.500 264.520 C 697.850 258.040, 679.850 248.795, 670.500 243.975 C 661.150 239.154, 642.475 229.616, 629 222.779 C 615.525 215.942, 603.600 209.818, 602.500 209.170 C 599.855 207.613, 519.070 167.969, 512 164.759 C 495.393 157.219, 477.400 149.883, 459 143.152 C 443.437 137.459, 439.525 136.235, 423.500 132.048 C 392.877 124.046, 366.608 121.717, 354.301 125.913 M 777.316 139.326 C 744.570 151.399, 754.154 205.299, 792.508 224.760 C 801.029 229.084, 805 227.659, 805 220.277 C 805 217.813, 806.139 206.509, 807.530 195.156 C 811.863 159.805, 811.220 152.195, 803.244 144.448 C 797.305 138.681, 785.429 136.335, 777.316 139.326 M 441 202.700 C 440.175 202.999, 432.300 207.837, 423.500 213.452 C 407.676 223.549, 394.145 231.934, 384.556 237.586 C 375.197 243.102, 371.180 245.513, 363.351 250.312 C 359.033 252.959, 348.750 259.200, 340.500 264.182 C 322.756 274.895, 310.530 282.470, 287.500 297.018 C 278.150 302.925, 268.025 309.185, 265 310.930 C 252.849 317.939, 243.458 324.021, 242.262 325.656 C 239.957 328.809, 240.460 744, 242.769 744 C 243.742 744, 247.826 742.619, 251.844 740.930 C 271.399 732.714, 307.028 724.535, 331 722.759 L 334.500 722.500 335 632 L 335.500 541.500 401.750 541.243 L 468 540.986 468.011 535.243 C 468.016 532.084, 468.098 512.827, 468.192 492.448 C 468.286 472.070, 468.030 454.857, 467.622 454.198 C 467.059 453.287, 451.232 453, 401.558 453 L 336.233 453 335.630 450.750 C 334.178 445.330, 334.971 399.462, 336.612 393.932 C 340.636 380.377, 350.621 371.459, 366.064 367.628 C 375.760 365.223, 678.245 365.131, 687.458 367.531 C 731.200 378.924, 739.064 442.754, 699.131 462.278 L 690.500 466.498 664.250 466.846 C 645.320 467.097, 637.992 467.516, 637.971 468.347 C 637.623 482.370, 638.066 554.298, 638.505 555.008 C 638.887 555.627, 650.103 556.004, 668.309 556.011 C 690.401 556.019, 698.618 556.361, 702.099 557.418 C 746.980 571.040, 752.437 636.323, 710.360 656.251 L 703.500 659.500 656.670 659.500 L 609.841 659.500 609.847 528.500 C 609.850 456.450, 609.612 396.488, 609.318 395.250 L 608.783 393 563.036 393 L 517.289 393 516.652 399.750 C 515.188 415.243, 515.922 746.691, 517.423 747.936 C 519.948 750.031, 712.502 748.865, 721.500 746.699 C 745.343 740.962, 762.277 733.421, 778.266 721.422 C 843.963 672.115, 849.782 569.584, 789.986 514.932 C 779.530 505.376, 779.638 505.745, 785.570 499.958 C 808.731 477.364, 820.357 439.315, 816.541 398.599 C 815.577 388.304, 811.600 384.853, 780.038 366.922 C 754.676 352.514, 743.187 346.164, 730.500 339.542 C 723.350 335.809, 717.050 332.423, 716.500 332.017 C 710.320 327.449, 552.629 249.172, 524 236.461 C 519.325 234.386, 511.761 230.958, 507.191 228.844 C 502.621 226.730, 498.697 225, 498.470 225 C 497.992 225, 489.683 221.281, 479 216.286 C 470.741 212.424, 443.111 201.642, 442.593 202.079 C 442.542 202.122, 441.825 202.402, 441 202.700" stroke="none" fill="#f9f9fa" fill-rule="evenodd"/><path d="M 489 11.058 C 452.987 12.805, 422.132 17.640, 381 27.982 C 281.519 52.996, 176.049 124.398, 111.998 210.093 C 102.895 222.272, 82 253.223, 82 254.527 C 82 254.893, 81.149 256.386, 80.109 257.847 C 77.182 261.958, 59.723 296.165, 54.002 309 C 51.182 315.325, 48.065 322.300, 47.074 324.500 C 43.312 332.856, 30.908 371.140, 27.149 386 C 20.909 410.665, 16.439 435.563, 12.786 466 C 10.085 488.496, 11.334 550.423, 14.974 574.500 C 15.473 577.800, 16.396 584.100, 17.024 588.500 C 17.653 592.900, 19.534 603.250, 21.205 611.500 C 22.875 619.750, 24.465 627.625, 24.737 629 C 29.216 651.642, 45.519 697.445, 59.391 726.363 C 63.576 735.087, 67 742.342, 67 742.485 C 67 743.083, 81.882 768.946, 85.134 774 C 107.046 808.052, 121.992 828.171, 140.105 848 C 226.240 942.290, 335.574 997.126, 465.500 1011.200 C 481.486 1012.932, 550.019 1012.936, 562.500 1011.206 C 581.023 1008.639, 586.831 1007.733, 599.500 1005.434 C 625.139 1000.781, 646.081 995.816, 662 990.615 C 676.797 985.780, 696.850 978.571, 702.076 976.208 C 704.509 975.107, 709.425 972.992, 713 971.506 C 734.557 962.547, 756.488 950.577, 785.571 931.898 C 898.043 859.656, 978.243 740.379, 1003.355 608 C 1010.897 568.245, 1012.372 552.377, 1012.330 511.500 C 1012.284 466.361, 1007.907 429.620, 997.974 391 C 997.478 389.075, 996.344 384.350, 995.452 380.500 C 978.864 308.877, 926.240 216.841, 869.662 160.500 L 861.628 152.500 860.909 157.500 C 860.514 160.250, 859.668 166.775, 859.030 172 C 857.508 184.448, 856.203 191.833, 853.893 201.068 C 851.299 211.438, 851.446 212.712, 855.837 217.936 C 902.728 273.715, 932.469 331.332, 950.333 401 C 951.673 406.225, 952.990 411.625, 953.261 413 C 953.531 414.375, 954.444 418.875, 955.288 423 C 956.133 427.125, 957.561 435.450, 958.461 441.500 C 959.361 447.550, 960.312 453.521, 960.573 454.769 C 964.989 475.870, 964.434 541.592, 959.558 575 C 958.160 584.573, 957.539 588.245, 954.988 602 C 954.230 606.088, 950.563 620.558, 945.015 641.348 C 936.513 673.210, 915.900 719.401, 897.297 748.274 C 893.834 753.650, 891 758.316, 891 758.643 C 891 759.771, 870.621 788.515, 864.754 795.663 C 858.359 803.455, 855.164 805.411, 840 810.822 C 819.235 818.231, 798.797 822.709, 770.500 826.049 C 759.523 827.345, 714.093 826.764, 701 825.159 C 686.967 823.440, 661.525 819.037, 653.500 816.938 C 649.100 815.788, 643.700 814.456, 641.500 813.980 C 637.799 813.178, 626.671 810.015, 609.500 804.884 C 599.376 801.859, 555.908 786.767, 536.500 779.538 C 526.065 775.652, 512.820 771.116, 508.500 769.949 C 506.850 769.503, 501.450 767.957, 496.500 766.512 C 465.088 757.348, 442.366 752.767, 409 748.871 C 371.831 744.530, 312.316 748.821, 280.500 758.134 C 267.379 761.975, 242.435 770.523, 235 773.727 C 228.221 776.648, 205.484 788.231, 202.854 790.104 C 201.389 791.147, 199.902 792, 199.548 792 C 198.477 792, 176.316 806.679, 175.574 807.881 C 169.492 817.722, 114.422 734.968, 95.797 688 C 85.600 662.284, 85.659 662.448, 80.187 645 C 77.347 635.944, 70.048 607.583, 68.928 601.250 C 68.418 598.363, 67.544 593.413, 66.986 590.250 C 58.921 544.521, 58.021 493.989, 64.470 449 C 66.398 435.546, 68.476 423.369, 70.016 416.500 C 79.667 373.438, 90.975 342.195, 110.935 303.439 C 115.767 294.056, 120.978 284.381, 122.515 281.939 C 124.051 279.498, 126.724 275.250, 128.455 272.500 C 157.037 227.084, 195.642 184.709, 237 153.353 C 250.745 142.932, 264.640 133, 265.475 133 C 265.841 133, 268.021 131.718, 270.320 130.152 C 298.889 110.686, 350.764 86.941, 385 77.659 C 405.235 72.173, 409.996 71.027, 425 68.028 C 456.504 61.731, 475.136 60.004, 511.634 60.002 L 540.767 60 544.505 55.750 C 552.295 46.894, 571.748 27.629, 577.750 22.828 C 581.188 20.078, 584 17.467, 584 17.027 C 584 15.124, 561.896 12.418, 535 11.027 C 513.874 9.935, 512.119 9.936, 489 11.058 M 625 16.394 C 594.887 26.939, 578.104 42.736, 502.286 131.896 C 498.916 135.859, 499.386 136.559, 507.750 140.027 C 520.639 145.371, 542.127 154.586, 548.500 157.502 C 584.071 173.775, 730.885 247.677, 755 261.446 C 758.025 263.174, 762.075 265.388, 764 266.366 C 765.925 267.345, 768.401 268.676, 769.502 269.323 C 770.604 269.970, 776.679 273.257, 783.002 276.626 C 797.121 284.148, 803.535 287.666, 807.691 290.169 C 812.298 292.943, 811.296 295.514, 822.579 252 C 833.440 210.118, 837.283 194.083, 839.476 181.500 C 849.985 121.202, 835.202 97.661, 784.500 93.953 C 770.139 92.903, 757.250 91.228, 746.500 89.016 C 729.408 85.497, 714.186 73.872, 692.796 48 C 666.664 16.392, 648.795 8.061, 625 16.394 M 354.301 125.913 C 329.799 134.266, 335.104 157.358, 369.389 191.596 C 388.212 210.392, 394.293 214.762, 397.035 211.458 C 397.739 210.610, 401.956 207.366, 406.407 204.250 C 410.858 201.133, 418.992 195.046, 424.482 190.724 C 433.737 183.437, 434.721 182.911, 437.982 183.502 C 441.347 184.111, 452.287 187.390, 456.500 189.051 C 457.600 189.485, 461.875 191.068, 466 192.569 C 470.125 194.070, 475.300 196.073, 477.500 197.020 C 491.107 202.878, 493.805 204, 494.286 204 C 494.581 204, 498.124 205.526, 502.161 207.390 C 510.069 211.043, 519.510 215.370, 527.500 219.003 C 530.250 220.253, 539.396 224.589, 547.825 228.638 C 556.254 232.687, 563.424 236, 563.758 236 C 564.629 236, 688.164 297.680, 702.500 305.273 C 709.100 308.769, 720.350 314.715, 727.500 318.487 C 734.650 322.259, 742.819 326.571, 745.653 328.068 C 754.495 332.741, 788.187 351.902, 794.850 356.049 C 798.343 358.222, 801.346 360, 801.524 360 C 802.219 360, 827.604 376.235, 829.384 377.818 C 833.337 381.332, 834.243 385.777, 834.476 402.799 C 834.741 422.156, 833.632 420.632, 848.507 422.089 C 913.641 428.472, 921.505 399.664, 867 354.348 C 855.474 344.766, 821.372 322, 818.544 322 C 818.331 322, 814.410 319.836, 809.829 317.190 C 805.248 314.545, 795.200 309.080, 787.500 305.045 C 779.800 301.011, 773.050 297.391, 772.500 297.002 C 771.950 296.612, 763.400 292.119, 753.500 287.016 C 743.600 281.914, 735.050 277.415, 734.500 277.019 C 733.950 276.623, 723.150 270.999, 710.500 264.520 C 697.850 258.040, 679.850 248.795, 670.500 243.975 C 661.150 239.154, 642.475 229.616, 629 222.779 C 615.525 215.942, 603.600 209.818, 602.500 209.170 C 599.855 207.613, 519.070 167.969, 512 164.759 C 495.393 157.219, 477.400 149.883, 459 143.152 C 443.437 137.459, 439.525 136.235, 423.500 132.048 C 392.877 124.046, 366.608 121.717, 354.301 125.913 M 777.316 139.326 C 744.570 151.399, 754.154 205.299, 792.508 224.760 C 801.029 229.084, 805 227.659, 805 220.277 C 805 217.813, 806.139 206.509, 807.530 195.156 C 811.863 159.805, 811.220 152.195, 803.244 144.448 C 797.305 138.681, 785.429 136.335, 777.316 139.326 M 441 202.700 C 440.175 202.999, 432.300 207.837, 423.500 213.452 C 407.676 223.549, 394.145 231.934, 384.556 237.586 C 375.197 243.102, 371.180 245.513, 363.351 250.312 C 359.033 252.959, 348.750 259.200, 340.500 264.182 C 322.756 274.895, 310.530 282.470, 287.500 297.018 C 278.150 302.925, 268.025 309.185, 265 310.930 C 252.849 317.939, 243.458 324.021, 242.262 325.656 C 239.957 328.809, 240.460 744, 242.769 744 C 243.742 744, 247.826 742.619, 251.844 740.930 C 271.399 732.714, 307.028 724.535, 331 722.759 L 334.500 722.500 335 632 L 335.500 541.500 401.750 541.243 L 468 540.986 468.011 535.243 C 468.016 532.084, 468.098 512.827, 468.192 492.448 C 468.286 472.070, 468.030 454.857, 467.622 454.198 C 467.059 453.287, 451.232 453, 401.558 453 L 336.233 453 335.630 450.750 C 334.178 445.330, 334.971 399.462, 336.612 393.932 C 340.636 380.377, 350.621 371.459, 366.064 367.628 C 375.760 365.223, 678.245 365.131, 687.458 367.531 C 731.200 378.924, 739.064 442.754, 699.131 462.278 L 690.500 466.498 664.250 466.846 C 645.320 467.097, 637.992 467.516, 637.971 468.347 C 637.623 482.370, 638.066 554.298, 638.505 555.008 C 638.887 555.627, 650.103 556.004, 668.309 556.011 C 690.401 556.019, 698.618 556.361, 702.099 557.418 C 746.980 571.040, 752.437 636.323, 710.360 656.251 L 703.500 659.500 656.670 659.500 L 609.841 659.500 609.847 528.500 C 609.850 456.450, 609.612 396.488, 609.318 395.250 L 608.783 393 563.036 393 L 517.289 393 516.652 399.750 C 515.188 415.243, 515.922 746.691, 517.423 747.936 C 519.948 750.031, 712.502 748.865, 721.500 746.699 C 745.343 740.962, 762.277 733.421, 778.266 721.422 C 843.963 672.115, 849.782 569.584, 789.986 514.932 C 779.530 505.376, 779.638 505.745, 785.570 499.958 C 808.731 477.364, 820.357 439.315, 816.541 398.599 C 815.577 388.304, 811.600 384.853, 780.038 366.922 C 754.676 352.514, 743.187 346.164, 730.500 339.542 C 723.350 335.809, 717.050 332.423, 716.500 332.017 C 710.320 327.449, 552.629 249.172, 524 236.461 C 519.325 234.386, 511.761 230.958, 507.191 228.844 C 502.621 226.730, 498.697 225, 498.470 225 C 497.992 225, 489.683 221.281, 479 216.286 C 470.741 212.424, 443.111 201.642, 442.593 202.079 C 442.542 202.122, 441.825 202.402, 441 202.700" stroke="none" fill="#1c446b" fill-rule="evenodd"/></svg>